<svg xmlns="http://www.w3.org/2000/svg" viewBox="0 0 500 200"><defs><style>.cls-1{fill:#fff;}</style></defs><title>Zasób 1</title><g id="Warstwa_2" data-name="Warstwa 2"><g id="Warstwa_1-2" data-name="Warstwa 1"><path class="cls-1" d="M107.23,62.9q-1.7-1.82-5.34-1.82a6.62,6.62,0,0,0-5.08,1.82,9,9,0,0,0-2.21,4.63,32.13,32.13,0,0,0-.52,5.92v50.81a37.68,37.68,0,0,0,.45,5.86,9,9,0,0,0,2.09,4.69c1.08,1.22,2.84,1.82,5.27,1.82s4.21-.6,5.34-1.82a9.15,9.15,0,0,0,2.22-4.69,32.42,32.42,0,0,0,.52-5.86V73.45a32.13,32.13,0,0,0-.52-5.92A9.1,9.1,0,0,0,107.23,62.9Z"/><polygon class="cls-1" points="198.45 120.62 206.09 117.56 199.33 80.88 198.45 120.62"/><path class="cls-1" d="M384.75,46.1,500,0H0V200l181.38-72.55,1.41-81.35h25l11.59,61.35L231.9,46.1H256l.88,51.15L271.5,91.4V46.1h16.41L302,79.2l7.54-3V46.1h19.28V68.47l15.89-6.35v-16H368v6.69l15.76-6.3V46.1ZM133.81,118.4a52,52,0,0,1-3,18.62,23.27,23.27,0,0,1-10,12q-7,4.17-19,4.17T83.14,149a23.26,23.26,0,0,1-9.9-12,52,52,0,0,1-3-18.62V79.19q0-10.95,3-18.63a22.92,22.92,0,0,1,9.9-11.79q6.9-4.11,18.75-4.1t19,4.1a22.94,22.94,0,0,1,10,11.79q3,7.68,3,18.63Z"/><polygon class="cls-1" points="235.03 105.99 239.95 104.02 239.32 81.4 235.03 105.99"/><polygon class="cls-1" points="180.96 151.61 197.77 151.61 198.45 120.62 181.38 127.45 180.96 151.61"/><polygon class="cls-1" points="212.36 151.61 227.08 151.61 235.03 105.99 206.09 117.56 212.36 151.61"/><polygon class="cls-1" points="241.28 151.61 257.82 151.61 256.88 97.25 239.95 104.02 241.28 151.61"/><polygon class="cls-1" points="309.54 96.9 302 79.2 271.5 91.4 271.5 151.61 291.43 151.61 291.43 96.9 313.05 151.61 328.81 151.61 328.81 68.47 309.54 76.19 309.54 96.9"/><polygon class="cls-1" points="344.71 151.61 368.02 151.61 368.02 52.79 344.71 62.12 344.71 151.61"/><polygon class="cls-1" points="407.1 104.33 425.47 104.33 425.47 88.17 407.1 88.17 407.1 61.99 431.2 61.99 431.2 46.1 384.75 46.1 383.78 46.49 383.78 151.61 431.46 151.61 431.46 135.85 407.1 135.85 407.1 104.33"/></g></g></svg>