<svg xmlns="http://www.w3.org/2000/svg" width="78.414" height="80.207" viewBox="0 0 78.414 80.207">
  <g id="Group_3" data-name="Group 3" transform="translate(-70.793 -160)" opacity="0.6">
    <line id="Line_1" data-name="Line 1" y1="77" x2="77" transform="translate(71.5 162.5)" fill="none" stroke="#82929f" stroke-linecap="round" stroke-width="1"/>
    <path id="Path_4" data-name="Path 4" d="M0,59,59,0" transform="translate(89.5 180.5)" fill="none" stroke="#82929f" stroke-linecap="round" stroke-width="1"/>
    <path id="Path_8" data-name="Path 8" d="M0,59,59,0" transform="translate(130.5 219.5) rotate(180)" fill="none" stroke="#82929f" stroke-linecap="round" stroke-width="1"/>
    <path id="Path_5" data-name="Path 5" d="M0,41,41,0" transform="translate(107.5 198.5)" fill="none" stroke="#82929f" stroke-linecap="round" stroke-width="1"/>
    <path id="Path_9" data-name="Path 9" d="M0,41,41,0" transform="translate(112.5 201.5) rotate(180)" fill="none" stroke="#82929f" stroke-linecap="round" stroke-width="1"/>
    <path id="Path_6" data-name="Path 6" d="M0,23l.539-.539L23,0" transform="translate(125.5 216.5)" fill="none" stroke="#82929f" stroke-linecap="round" stroke-width="1"/>
    <path id="Path_10" data-name="Path 10" d="M0,23l.539-.539L23,0" transform="translate(94.5 183.5) rotate(180)" fill="none" stroke="#82929f" stroke-linecap="round" stroke-width="1"/>
    <path id="Path_7" data-name="Path 7" d="M0,5,4.922.078,5,0" transform="translate(143.5 234.5)" fill="none" stroke="#82929f" stroke-linecap="round" stroke-width="1"/>
    <path id="Path_11" data-name="Path 11" d="M0,5,4.922.078,5,0" transform="translate(76.5 165.5) rotate(180)" fill="none" stroke="#82929f" stroke-linecap="round" stroke-width="1"/>
  </g>
</svg>
